<svg id="Layer_1" data-name="Layer 1" xmlns="http://www.w3.org/2000/svg" viewBox="0 0 114.37 149.02"><defs><style>.cls-1{fill:#fcee21;}.cls-1,.cls-2,.cls-3{stroke:#a67c52;stroke-miterlimit:10;stroke-width:3px;}.cls-2{fill:#f7931e;}.cls-3{fill:#ff0;}</style></defs><polygon class="cls-1" points="107.2 118.32 5.01 146.11 94.53 56.03 105.16 59.88 110.79 69.36 112.87 81.22 111.98 96.33 110.5 108.77 107.2 118.32"/><path class="cls-2" d="M48.07,31C47.78,67.44,46,162.26,46,162.26H67V98l38.22.3L121,84.63l5-25.19L123.33,34,103.78,23,76.22,21.52Z" transform="translate(-38.91 -20.01)"/><polygon class="cls-3" points="30.35 23.44 60.57 19.29 64.42 27.29 65.61 42.99 61.16 56.62 43.38 62.25 28.57 59.88 30.35 23.44"/><polygon class="cls-2" points="68.76 65.76 62.5 76.75 62.5 106.4 64.58 123.61 76.18 131.74 86.15 131.74 98.67 126.72 103.77 110.94 105.16 87.99 104 72.21 98.44 61.93 86.38 58.11 76.87 58.11 68.76 65.76"/><polygon class="cls-3" points="76.29 78.31 73.13 87.63 73.13 104.51 76.29 115.84 85.74 119.19 92.5 113.69 94.53 100.06 94.53 86.44 91.15 74 81.02 70.66 76.29 78.31"/><path class="cls-2" d="M75.63,103.89V159.3H83l1.18-33.19,5.63-6.52,11.26-2.07,10.37,1.18,2.08-11-11-3.85s-7.11.89-8,1.78-7.7,5.33-7.7,5.33l-2.37,1.78.29-14.52Z" transform="translate(-38.91 -20.01)"/></svg>