<svg id="Layer_1" data-name="Layer 1" xmlns="http://www.w3.org/2000/svg" viewBox="0 0 190.23 190.18"><defs><style>.cls-1{fill:#f3e3b7;}.cls-2{fill:#c69c6d;}.cls-3{fill:#e2c656;}.cls-4{fill:#c7760d;}.cls-5{fill:none;stroke:#754c24;stroke-miterlimit:10;stroke-width:0.5px;}</style></defs><circle class="cls-1" cx="95.12" cy="95.11" r="90.62"/><path class="cls-2" d="M186.59,99.83c0,2.45-.1,4.9-.29,7.35q-.13,1.63-.33,3.27c0,.28-.07.57-.1.85-.13,1.13.11-.71,0,0s-.18,1.24-.28,1.86a89.11,89.11,0,0,1-3.25,13.48c-.7,2.17-1.51,4.31-2.36,6.42-.1.25-.38,1,0,0-.1.26-.22.51-.33.76-.2.46-.41.91-.61,1.37-.51,1.1-1,2.19-1.58,3.28a91.48,91.48,0,0,1-7,11.54q-1,1.34-2,2.64c.08-.1.6-.76.1-.13l-.61.77-1,1.27c-1.46,1.76-3,3.47-4.59,5.11s-3.09,3.09-4.72,4.54c-.81.73-1.64,1.44-2.48,2.14-.42.35-.84.7-1.27,1l-.64.51c-.91.73.47-.35-.26.2a96.56,96.56,0,0,1-11.29,7.34c-1.93,1.06-3.91,2.05-5.91,3l-1.52.68-.38.16-.38.16c-1.08.44-2.17.86-3.26,1.26a89.47,89.47,0,0,1-13.13,3.68c-1.11.23-2.23.43-3.35.61l-1.7.26c-1.12.16.72-.09,0,0l-1.2.14q-3.45.39-6.93.53a92.32,92.32,0,0,1-14.3-.57c-.34,0-.69-.07-1-.13.14,0,1,.15.18,0l-1.7-.26c-1.23-.2-2.46-.42-3.69-.68q-3.32-.68-6.57-1.6t-6.53-2.12c-1-.37-2-.75-2.95-1.15l-.16-.06-.61-.26-1.81-.81A90.3,90.3,0,0,1,53,171.7c-1.83-1.2-3.6-2.48-5.35-3.8,1,.72-.38-.31-.63-.51-.43-.34-.85-.69-1.27-1-.93-.77-1.83-1.55-2.73-2.36a90.33,90.33,0,0,1-9.27-9.69c-.35-.42-.7-.84-1-1.27l-.4-.51c-.68-.85.4.56,0,0-.68-.93-1.38-1.84-2-2.78-1.3-1.83-2.52-3.72-3.68-5.64s-2.25-3.91-3.26-5.93c-.49-1-1-2-1.43-3-.23-.51-.45-1-.67-1.52-.09-.2-.19-.4-.27-.61.43,1.12,0-.07-.12-.31a91.13,91.13,0,0,1-4.15-12.91c-.55-2.32-1-4.66-1.39-7-.09-.57-.19-1.13-.25-1.7,0,.14.13,1,0,.17,0-.34-.09-.68-.13-1q-.19-1.73-.33-3.45a92.77,92.77,0,0,1,0-14.34c.09-1.15.21-2.3.34-3.45,0-.28.08-.57.11-.85.08-.72-.16,1.12,0,0,.1-.68.2-1.35.31-2Q16,82.8,16.77,79.5a94.72,94.72,0,0,1,4.26-13c.41-1-.29.63,0,0l.33-.76c.22-.51.45-1,.68-1.52.48-1.05,1-2.09,1.52-3.12q1.53-3,3.29-5.91c1.13-1.87,2.34-3.7,3.61-5.49.63-.89,1.29-1.77,1.95-2.64-.74,1,.36-.45.51-.64l1.24-1.52a93.34,93.34,0,0,1,9.35-9.62c.78-.69,1.57-1.36,2.36-2,.38-.32.76-.63,1.15-.93l.77-.62c.88-.69-.77.58.12-.09,1.8-1.35,3.62-2.65,5.51-3.88a90.2,90.2,0,0,1,11.85-6.5l1.36-.61c.2-.08,1.23-.57.15-.06.2-.1.41-.18.62-.26q1.69-.69,3.42-1.32,3.15-1.14,6.38-2,3.42-1,6.92-1.65c1.11-.21,2.23-.41,3.36-.59L89,14.43c.71-.1-1.14.14,0,0l1-.13a92.47,92.47,0,0,1,14.31-.51q3.64.15,7.26.59c.1,0,.67.11.69.09-.14.16-.9-.13,0,0l1.7.26c1.17.19,2.35.41,3.52.65a89.89,89.89,0,0,1,13.26,3.78c1,.39,2.07.8,3.1,1.22.21.08.8.3-.16-.07.31.12.62.26.92.4l1.51.68c2.1,1,4.17,2,6.19,3.15s3.79,2.21,5.62,3.41c.92.6,1.82,1.22,2.71,1.86.45.31.89.63,1.33,1l.66.49c.2.15,1.19.92.26.19a93.33,93.33,0,0,1,9.95,9q2.27,2.37,4.35,4.9c.35.42.69.84,1,1.27l.51.64c.44.54-.65-.86,0,0s1.37,1.84,2,2.78a90.47,90.47,0,0,1,6.92,11.59c.47.94.92,1.88,1.36,2.84.23.5.45,1,.67,1.51l.07.15c.14.3.26.62.38.92q1.25,3.1,2.27,6.28a89.24,89.24,0,0,1,3.21,13.5c0,.23,0,1.53.25,1.69l-.07-.51c0,.23,0,.45.08.68s.06.46.08.69c.14,1.14.25,2.29.33,3.44.18,2.33.26,4.67.27,7a4.5,4.5,0,1,0,9,0,95.19,95.19,0,0,0-17.52-55A95.1,95.1,0,0,0,74.49,8.31a95.12,95.12,0,0,0-13.61,178A96.37,96.37,0,0,0,119.72,193a95.1,95.1,0,0,0,74.66-78.11,101.14,101.14,0,0,0,1.21-15,4.5,4.5,0,0,0-9,0Z" transform="translate(-5.36 -4.72)"/><path class="cls-3" d="M178.74,92.17c0,3.85-44,5.2-48.3,5.2s-42.75-53-42.75-56.89S114,20,118.26,20,178.74,88.32,178.74,92.17Z" transform="translate(-5.36 -4.72)"/><path class="cls-3" d="M94,112.42c0,3.86-9.78,58.73-14.07,58.73S36.58,127.3,36.58,123.44s21.71-17.77,26-17.77S94,108.57,94,112.42Z" transform="translate(-5.36 -4.72)"/><path class="cls-3" d="M111.06,88.94c0,3.86-63.44,19.69-67.73,19.69s-6.75-5.63-6.75-9.48S62.68,25.23,67,25.23,111.06,85.09,111.06,88.94Z" transform="translate(-5.36 -4.72)"/><path class="cls-3" d="M175.19,126.38c-2.26,3.13-59.13,56.92-63.41,56.92s-4.45-51.56-4.45-55.41,16.76-23.79,21-23.79S194.84,99.09,175.19,126.38Z" transform="translate(-5.36 -4.72)"/><path class="cls-4" d="M95.48,71.23c0,3.86-20.58-18.14-24.87-18.14s-7.75-3.13-7.75-7,3.47-7,7.75-7S95.48,67.38,95.48,71.23Z" transform="translate(-5.36 -4.72)"/><path class="cls-4" d="M100,81.37c0,3.85-40.19,8.72-44.47,8.72s-7.75-3.12-7.75-7,3.47-7,7.75-7S100,77.52,100,81.37Z" transform="translate(-5.36 -4.72)"/><path class="cls-4" d="M76.89,116c0,3.85-13,20.55-17.26,20.55s-9.38-2.77-9.38-6.63S52.38,116,56.67,116,76.89,112.18,76.89,116Z" transform="translate(-5.36 -4.72)"/><path class="cls-4" d="M165.41,78.21c0,3.85-22.62,17.72-26.91,17.72s-7.75-3.13-7.75-7,3.47-7,7.75-7S165.41,74.36,165.41,78.21Z" transform="translate(-5.36 -4.72)"/><path class="cls-4" d="M80.37,156c0,3.85-10-3.67-14.31-3.67s7.76-10.11,7.76-14S83.4,116,87.69,116,80.37,152.18,80.37,156Z" transform="translate(-5.36 -4.72)"/><path class="cls-4" d="M125.46,141.22c0,3.86,9.57,21.34,5.29,21.34s-11,7.41-11,3.55-8.73-40.65-4.45-40.65S125.46,137.37,125.46,141.22Z" transform="translate(-5.36 -4.72)"/><path class="cls-4" d="M123,29.81c1,3.74-6,31.27-10.19,32.35s-8.29-1.08-9.26-4.81S110,25,114.15,23.89,122,26.08,123,29.81Z" transform="translate(-5.36 -4.72)"/><path class="cls-4" d="M174,116c0,3.85-8.16,11.55-12.44,11.55s-36.1-10-36.1-13.91,3.47-7,7.75-7S174,112.18,174,116Z" transform="translate(-5.36 -4.72)"/><path class="cls-4" d="M141,54.48c0,3.86-15.43,26.89-19.71,26.89s4.2-23,4.2-26.89,3.47-7,7.75-7S141,50.63,141,54.48Z" transform="translate(-5.36 -4.72)"/><line class="cls-5" x1="95.12" y1="4.5" x2="95.12" y2="185.73"/><line class="cls-5" x1="185.73" y1="95.11" x2="4.5" y2="95.11"/><line class="cls-5" x1="30.89" y1="159.03" x2="159.04" y2="30.89"/><line class="cls-5" x1="158.87" y1="159.51" x2="30.72" y2="31.36"/></svg>